<svg width="45" height="45" viewBox="0 0 45 45" fill="none" xmlns="http://www.w3.org/2000/svg">
<path fill-rule="evenodd" clip-rule="evenodd" d="M32.2687 17.7937H41.25C42.2812 17.7937 43.125 18.6375 43.125 19.6687L43.0687 20.175L38.3063 37.5562C37.8563 39.1312 36.4125 40.2937 34.6875 40.2937H10.3125C8.5875 40.2937 7.14375 39.1312 6.7125 37.5562L1.95 20.175C1.89375 20.0062 1.875 19.8375 1.875 19.6687C1.875 18.6375 2.71875 17.7937 3.75 17.7937H12.7312L20.9438 5.51249C21.3 4.96874 21.9 4.70624 22.5 4.70624C23.1 4.70624 23.7 4.96874 24.0562 5.49374L32.2687 17.7937ZM27.75 17.7937L22.5 9.91874L17.25 17.7937H27.75ZM34.6875 36.5437L10.3313 36.5625L6.2063 21.5437H38.8125L34.6875 36.5437ZM18.75 29.0437C18.75 26.9812 20.4375 25.2937 22.5 25.2937C24.5625 25.2937 26.25 26.9812 26.25 29.0437C26.25 31.1062 24.5625 32.7937 22.5 32.7937C20.4375 32.7937 18.75 31.1062 18.75 29.0437Z" fill="#F2F2F2"/>
</svg>
